<svg style="width:100%;height:100%;border-radius:inherit;" viewbox="0 0 400 280" xmlns="http://www.w3.org/2000/svg">
<rect fill="#0d0d0d" height="280" width="400"></rect>
<rect fill="#161616" height="32" width="400" x="0" y="0"></rect>
<circle cx="14" cy="16" fill="#ff5f57" r="5"></circle><circle cx="28" cy="16" fill="#febc2e" r="5"></circle><circle cx="42" cy="16" fill="#28c840" r="5"></circle>
<text fill="#737373" font-family="monospace" font-size="9" x="60" y="21">Security+ Exam Prep · SY0-701</text>
<!-- progress bar -->
<rect fill="#1a1a1a" height="8" rx="4" width="360" x="20" y="42"></rect>
<rect fill="#c8f76b" height="8" rx="4" width="280" x="20" y="42"></rect>
<text fill="#737373" font-family="monospace" font-size="8" x="20" y="66">Question 74 of 100 · Domain: Threats &amp; Vulnerabilities</text>
<text fill="#c8f76b" font-family="monospace" font-size="8" x="356" y="66">74%</text>
<!-- question card -->
<rect fill="#131313" height="70" rx="6" stroke="rgba(200,247,107,0.2)" stroke-width="1" width="360" x="20" y="74"></rect>
<text fill="#a3a3a3" font-family="monospace" font-size="8" x="32" y="92">Q74.</text>
<text fill="#f5f5f4" font-family="monospace" font-size="8" x="55" y="92">Which attack exploits trust between authenticated systems?</text>
<text fill="#f5f5f4" font-family="monospace" font-size="8" x="32" y="108">A. Replay attack uses captured packets to re-authenticate to a</text>
<text fill="#f5f5f4" font-family="monospace" font-size="8" x="32" y="120">   target system without knowing the credentials.</text>
<text fill="#737373" font-family="monospace" font-size="8" x="32" y="134">[ Pass-the-Hash  /  Replay  /  MITM  /  ARP Poisoning ]</text>
<!-- answer options -->
<rect fill="#1a1a1a" height="28" rx="5" stroke="rgba(255,255,255,0.08)" width="170" x="20" y="152"></rect>
<text fill="#a3a3a3" font-family="monospace" font-size="8" x="34" y="170">A. Pass-the-Hash</text>
<rect fill="rgba(200,247,107,0.12)" height="28" rx="5" stroke="#c8f76b" stroke-width="1" width="180" x="200" y="152"></rect>
<text fill="#c8f76b" font-family="monospace" font-size="8" x="214" y="170">B. Replay Attack ✓</text>
<rect fill="#1a1a1a" height="28" rx="5" stroke="rgba(255,255,255,0.08)" width="170" x="20" y="188"></rect>
<text fill="#a3a3a3" font-family="monospace" font-size="8" x="34" y="206">C. Man-in-the-Middle</text>
<rect fill="#1a1a1a" height="28" rx="5" stroke="rgba(255,255,255,0.08)" width="180" x="200" y="188"></rect>
<text fill="#a3a3a3" font-family="monospace" font-size="8" x="214" y="206">D. ARP Poisoning</text>
<!-- score strip -->
<rect fill="#131313" height="40" rx="5" stroke="rgba(255,255,255,0.07)" width="360" x="20" y="226"></rect>
<text fill="#737373" font-family="monospace" font-size="7" x="36" y="241">SCORE</text>
<text fill="#c8f76b" font-family="monospace" font-size="14" font-weight="700" x="36" y="256">91%</text>
<text fill="#737373" font-family="monospace" font-size="7" x="100" y="241">STREAK</text>
<text fill="#febc2e" font-family="monospace" font-size="14" font-weight="700" x="100" y="256">12🔥</text>
<text fill="#737373" font-family="monospace" font-size="7" x="170" y="241">TIMER</text>
<text fill="#a3a3a3" font-family="monospace" font-size="14" font-weight="700" x="170" y="256">48:22</text>
<text fill="#737373" font-family="monospace" font-size="7" x="250" y="241">STATUS</text>
<rect fill="rgba(40,200,64,0.15)" height="14" rx="3" stroke="#28c840" stroke-width="0.6" width="80" x="248" y="247"></rect>
<text fill="#28c840" font-family="monospace" font-size="7" x="256" y="257">CERTIFIED PASS ✓</text>
</svg>